<?xml version="1.0" encoding="utf-8"?>
<!-- Generator: Adobe Illustrator 19.2.0, SVG Export Plug-In . SVG Version: 6.00 Build 0)  -->
<svg version="1.1" id="Layer_1" xmlns="http://www.w3.org/2000/svg" xmlns:xlink="http://www.w3.org/1999/xlink" x="0px" y="0px"
	 viewBox="0 0 612 792" style="enable-background:new 0 0 612 792;" xml:space="preserve">
<style type="text/css">
	.st0{fill:#124677;}
	.st1{fill:url(#SVGID_1_);}
	.st2{fill:url(#SVGID_2_);}
	.st3{fill:url(#SVGID_3_);}
	.st4{fill:url(#SVGID_4_);}
	.st5{fill:url(#SVGID_5_);}
	.st6{fill:url(#SVGID_6_);}
	.st7{fill:url(#SVGID_7_);}
	.st8{fill:url(#SVGID_8_);}
</style>
<g>
	<path class="st0" d="M82.1,544.2c62.2,14.5,168.7-7.2,264.4-49.8c-15.9-4.1-33.2-7.3-51.8-9.6C180.5,470.5,49.5,502.6,62.4,532
		c0.3,0.5,0.5,1,0.8,1.5c0.7,1.2,1.5,2.4,2.2,3.7c-0.8-1.3-1.5-2.6-2.3-4C67.1,537.9,69.5,539.9,82.1,544.2z"/>
	<path class="st0" d="M94.4,578c6.4,7.7,10.1,11.7,17.5,18.9c0.7,0.7,1.5,1.4,2.2,2.1c-5.3-5.3-9.2-9.3-12.4-12.6
		C99.2,583.6,96.7,580.7,94.4,578z"/>
	<path class="st0" d="M82.1,562.7c0,0,0.1,0.1,0.1,0.1c-3-4.4-6.3-9.4-9.6-14.4C75.8,553.5,79.1,558.4,82.1,562.7z"/>
	<path class="st0" d="M126.2,609.7c3.7,3.1,7.3,6.2,10.6,8.8c-0.1-0.1-0.2-0.2-0.4-0.4c-1.2-1-2.5-2-3.8-3.1
		C130.6,613.4,128.4,611.6,126.2,609.7z"/>
	<path class="st0" d="M456.3,604.4c8.9-18.4,5.8-37.2-7.4-54.4c-30.6,17.6-64,32.2-97.3,44c23.7,12.6,30.4,29.4,17.9,42.8
		c-2.9,3.1-6.3,6.3-10.4,9.1C391.8,635.8,425.5,621.9,456.3,604.4z"/>
	<path class="st0" d="M521.9,573.1c3.6-4.3,7.2-9,10.9-14.1c2.1-3.1,4.4-6.4,6.9-10.1c0.3-0.5,0.7-1,1-1.5c0.1-0.2,0.2-0.3,0.3-0.5
		c-0.2,0.4-0.5,0.7-0.7,1.1C535.1,555.3,529.2,563.9,521.9,573.1z"/>
	<path class="st0" d="M27.6,392.3c0,0.3,0,0.6,0,0.9C27.6,392.9,27.6,392.6,27.6,392.3C27.6,392.3,27.6,392.3,27.6,392.3z"/>
	<path class="st0" d="M29.1,425.8c0.2,2.3,0.5,4.6,0.8,6.9c-0.7-8.2-1.5-16.7-1.9-25.7C28.2,413.6,28.6,420.1,29.1,425.8z"/>
	<path class="st0" d="M79.7,342.8c73.1,5.7,166-21.9,232.4-60.4C205.2,269,96.4,278.9,51.8,306.2C41,312.8,39.1,317.6,38,320.4
		C37.6,325.6,36.6,337.6,79.7,342.8z"/>
	<path class="st0" d="M465.3,626.1c0.2-0.1,0.3-0.2,0.5-0.3l1.9-1.4c-0.4,0.3-0.7,0.5-1.1,0.8C466.2,625.5,465.7,625.8,465.3,626.1z
		"/>
	<path class="st0" d="M447.4,314.5c-27.1,28.1-67.4,55.4-119.7,79.2c45.6,8,89.2,21.3,124.5,40.9c31.8-23,58.1-48.5,75.4-75.3
		C506.1,341.2,478.5,326.3,447.4,314.5z"/>
	<path class="st0" d="M485.8,610.2c5.5-4.6,10-8.8,18.1-16.8c-7.1,6.8-11.5,11-15.6,14.6C487.5,608.8,486.7,609.5,485.8,610.2z"/>
	<path class="st0" d="M523.6,555.1c19.6-19.1,35.2-40.6,44.5-64.2c-0.1,0.2-0.1,0.3-0.2,0.5c-3.1,8-7.3,18.5-12.6,29.5
		c4.6-9.2,9.2-19.4,13.6-32.1c6.7-22.9,7.2-43.8,2.7-62.7c-10.8,26.8-29,51-52.1,72.7C528.3,517.1,529.5,536.1,523.6,555.1z"/>
	<path class="st0" d="M487.1,245c24.7,13.1,46.2,28.8,62.5,47.3c0.1-17.1-4.2-34.5-13.7-51.8c-2.3-4.2-5.8-9.3-8.8-13.5
		c-0.9-1.2-1.9-2.4-2.9-3.6c-15.1-17-33.5-31.2-54-42.7C485.7,200.3,491.1,222.2,487.1,245z"/>
	<path class="st0" d="M152.2,163.7c-3.8,2.6-7.6,5.1-10.9,7.4c-0.9,0.7-1.7,1.4-2.5,2c2-1.5,4-3,6.1-4.4
		C147.2,167.1,149.7,165.4,152.2,163.7z"/>
	<path class="st0" d="M384.4,154.5c-2.8-3-5.9-5.7-9.3-8.2c-33.3-7-67.3-10-98.6-9.9c-2.2,2-3.5,4.2-3.6,6.7
		c-24.9,3.9-40.2,1-44.3-3.9c-27.8,3.3-50.9,9.4-65.6,17.2c-19.8,13.4-2.4,18.6,6,20.1c13.5,2.6,29.1,1,37.4,0.1
		c-9.1,6.2-17.8,12.8-26.3,19.9c61.4-7.7,139.9-4,211.2,13.3C401,190.5,400.1,171.3,384.4,154.5z"/>
	<path class="st0" d="M112.4,195.7c-0.5,0.5-1.1,1.1-1.6,1.6c5.6-5.4,9.4-8.9,13-12.1C120.4,188.2,117,191.3,112.4,195.7z"/>
	<path class="st0" d="M573,317.6c-0.5-1.6-1-3.3-1.6-5.3c0,0,0-0.1,0-0.1c2.3,8.4,4,14.5,5.2,19.4
		C575.5,326.6,574.3,321.8,573,317.6z"/>
	<path class="st0" d="M91.4,218.5c-2.8,3.4-5.6,7.1-8,10.2c-0.9,1.2-1.9,2.5-2.9,4c6.2-8,10.1-13,13.2-16.9
		C92.9,216.7,92.1,217.6,91.4,218.5z"/>
	<path class="st0" d="M555.4,272.5c-0.4-0.8-0.8-1.6-1.3-2.5c-0.4-0.8-0.8-1.6-1.2-2.4c4,8.4,6.7,14.2,8.9,18.9
		C559.7,281.7,557.5,276.6,555.4,272.5z"/>
	<path class="st0" d="M531.5,232.9c-0.7-1-1.4-2-2.2-3c-0.6-0.8-1.2-1.6-1.9-2.4c5.6,7.9,9.4,13.2,12.3,17.6
		C537.1,241.1,534.2,236.7,531.5,232.9z"/>
	
		<linearGradient id="SVGID_1_" gradientUnits="userSpaceOnUse" x1="605.3507" y1="449.7195" x2="338.66" y2="695.3557" gradientTransform="matrix(0.9511 0.309 -0.309 0.9511 138.2876 -83.3702)">
		<stop  offset="6.060610e-03" style="stop-color:#97D8E2"/>
		<stop  offset="0.1394" style="stop-color:#45C4DB"/>
		<stop  offset="1" style="stop-color:#0E67B2"/>
	</linearGradient>
	<path class="st1" d="M522.5,571.2c7.3-9.2,13.2-17.7,18.4-25.2c0.2-0.4,0.5-0.7,0.7-1.1c3-4.6,5.8-9.3,8-13.5
		c0.6-1.1,1.3-2.3,1.9-3.5c1.6-3,3.1-6,4.5-8.9c5.3-11,9.5-21.5,12.6-29.5c0.1-0.2,0.1-0.3,0.2-0.5c-9.3,23.6-24.9,45.1-44.5,64.2
		c-19.2,18.7-42.3,35.2-67.3,49.4c-30.9,17.5-64.5,31.4-97.2,41.4c-18.6,5.7-36.8,10.2-54,13.4c0.2-0.1,0.4-0.2,0.6-0.4
		c-35.1,6.6-68.8,4.9-99.4-4c-0.2,0.5-0.4,1.1-0.6,1.9c1,1.4,5,2.2,8,3.5c1.4,0.5,2.7,1,4.1,1.5c-0.2-0.1-0.5-0.1-0.7-0.2
		c0.3,0.1,0.6,0.2,0.9,0.3c2.1,0.7,4.4,1.4,6.8,2.1c2.2,0.7,4.4,1.4,6.5,2c0.3,0.1,0.7,0.2,1,0.3c0.2,0.1,0.4,0.1,0.6,0.2
		c3.9,1.1,9,2.3,13.2,3.3c0.2,0,0.3,0.1,0.5,0.1c0.8,0.2,1.6,0.4,2.3,0.5c3.1,0.7,6.6,1.3,9.5,1.8c0.5,0.1,1,0.2,1.6,0.3
		c0.1,0,0.3,0,0.4,0.1c0,0,0.1,0,0.1,0c3,0.5,6.5,1,10.2,1.5c0.4,0,0.8,0.1,1.3,0.2c0.4,0,0.7,0.1,1,0.1c2.6,0.3,5.1,0.6,7.3,0.8
		c0.9,0.1,1.9,0.2,3,0.3c0.1,0,0.2,0,0.3,0c1,0.1,2.1,0.1,3.2,0.2c2.9,0.2,5,0.3,6.7,0.4c2.7,0.1,5.3,0.2,7.9,0.3c0.6,0,1.3,0,2.1,0
		c0.8,0,1.5,0,2.1,0c1.8,0,3.7,0,5.7,0c0.5,0,1,0,1.5,0c0.3,0,0.5,0,0.7,0c2.8-0.1,5.6-0.2,8.2-0.3c0.1,0,0.1,0,0.2,0
		c3.8-0.2,5.2-0.3,8.8-0.6c0.6,0,1.1-0.1,1.6-0.1c2.1-0.2,4.1-0.4,6-0.6c0.4,0,0.8-0.1,1.2-0.1l6.3-0.8
		c39.4-5.8,78.2-20.8,115.4-44.7c1.9-1.3,3.8-2.5,5.5-3.8c0.4-0.3,0.7-0.5,1.1-0.8l2.9-2.1c3.1-2.4,5.7-4.4,8-6.2c2.4-2,4.9-4,7.2-6
		c0.9-0.7,1.7-1.4,2.5-2.1c4.1-3.6,8.5-7.8,15.6-14.6C511.4,584.5,517.3,577.7,522.5,571.2z"/>
	
		<linearGradient id="SVGID_2_" gradientUnits="userSpaceOnUse" x1="605.3807" y1="451.6918" x2="339.5966" y2="696.4929" gradientTransform="matrix(0.9511 0.309 -0.309 0.9511 138.2876 -83.3702)">
		<stop  offset="6.060610e-03" style="stop-color:#5FC8D7"/>
		<stop  offset="0.1394" style="stop-color:#45C4DB"/>
		<stop  offset="0.6545" style="stop-color:#0E67B2"/>
		<stop  offset="1" style="stop-color:#14244C"/>
	</linearGradient>
	<path class="st2" d="M521.9,573.1c7.3-9.2,13.2-17.7,18.4-25.2c0.2-0.4,0.5-0.7,0.7-1.1c3-4.6,5.8-9.3,8-13.5
		c0.6-1.1,1.3-2.3,1.9-3.5c1.6-3,3.1-6,4.5-8.9c5.3-11,9.5-21.5,12.6-29.5c0.1-0.2,0.1-0.3,0.2-0.5c-9.3,23.6-24.9,45.1-44.5,64.2
		c-19.2,18.7-42.3,35.2-67.3,49.4c-30.9,17.5-64.5,31.4-97.2,41.4c-18.6,5.7-36.8,10.2-54,13.4c0.2-0.1,0.4-0.2,0.6-0.4
		c-35.1,6.6-68.8,4.9-99.4-4c1.7,1.9,3.3,3.6,7.4,5.4c1.4,0.5,2.7,1,4.1,1.5c-0.2-0.1-0.5-0.1-0.7-0.2c0.3,0.1,0.6,0.2,0.9,0.3
		c2.1,0.7,4.4,1.4,6.8,2.1c2.2,0.7,4.4,1.4,6.5,2c0.3,0.1,0.7,0.2,1,0.3c0.2,0.1,0.4,0.1,0.6,0.2c3.9,1.1,9,2.3,13.2,3.3
		c0.2,0,0.3,0.1,0.5,0.1c0.8,0.2,1.6,0.4,2.3,0.5c3.1,0.7,6.6,1.3,9.5,1.8c0.5,0.1,1,0.2,1.6,0.3c0.1,0,0.3,0,0.4,0.1
		c0,0,0.1,0,0.1,0c3,0.5,6.5,1,10.2,1.5c0.4,0,0.8,0.1,1.3,0.2c0.4,0,0.7,0.1,1,0.1c2.6,0.3,5.1,0.6,7.3,0.8c0.9,0.1,1.9,0.2,3,0.3
		c0.1,0,0.2,0,0.3,0c1,0.1,2.1,0.1,3.2,0.2c2.9,0.2,5,0.3,6.7,0.4c2.7,0.1,5.3,0.2,7.9,0.3c0.6,0,1.3,0,2.1,0c0.8,0,1.5,0,2.1,0
		c1.8,0,3.7,0,5.7,0c0.5,0,1,0,1.5,0c0.3,0,0.5,0,0.7,0c2.8-0.1,5.6-0.2,8.2-0.3c0.1,0,0.1,0,0.2,0c3.8-0.2,5.2-0.3,8.8-0.6
		c0.6,0,1.1-0.1,1.6-0.1c2.1-0.2,4.1-0.4,6-0.6c0.4,0,0.8-0.1,1.2-0.1l6.3-0.8c39.4-5.8,78.2-20.8,115.4-44.7
		c1.9-1.3,3.8-2.5,5.5-3.8c0.4-0.3,0.7-0.5,1.1-0.8l2.9-2.1c3.1-2.4,5.7-4.4,8-6.2c2.4-2,4.9-4,7.2-6c0.9-0.7,1.7-1.4,2.5-2.1
		c4.1-3.6,8.5-7.8,15.6-14.6C510.8,586.4,516.7,579.6,521.9,573.1z"/>
	
		<linearGradient id="SVGID_3_" gradientUnits="userSpaceOnUse" x1="556.572" y1="269.7538" x2="87.2453" y2="686.4196" gradientTransform="matrix(0.9511 0.309 -0.309 0.9511 138.2876 -83.3702)">
		<stop  offset="6.060610e-03" style="stop-color:#97D8E2"/>
		<stop  offset="0.1394" style="stop-color:#45C4DB"/>
		<stop  offset="1" style="stop-color:#0E67B2"/>
	</linearGradient>
	<path class="st3" d="M449.6,548.1c26.2-15,50.3-32.1,70.7-51.2c23.1-21.7,41.3-45.9,52.1-72.7c8.1-20.2,12-41.9,10.5-64.9l-0.1-0.5
		c-1-7-2.6-16-4.1-23.5c-0.4-1.7-0.9-3.6-1.4-5.7c-1.3-4.9-2.9-10.9-5.2-19.4c0,0,0,0,0,0c-1.6-4.8-2.8-8.5-4-11.8
		c-1.2-3.3-2.5-6.6-3.8-9.6c-0.6-1.4-1.2-2.8-1.9-4.3c-2.1-4.7-4.9-10.5-8.9-18.9c-0.1-0.2-0.1-0.3-0.2-0.4c-2.4-4.4-4.2-7.8-6-10.9
		c-2.1-3.4-4.2-6.9-6.2-10c-0.2-0.4-0.5-0.7-0.7-1.1c-3-4.4-6.7-9.7-12.3-17.6c-0.3-0.4-0.6-0.9-1-1.3l-0.9-1.2
		c0.5,0.7,1,1.4,1.5,2.1c3,4.2,6.5,9.3,8.8,13.5c9.5,17.3,13.8,34.6,13.7,51.8c-0.2,22.8-8.1,45.3-22,66.9
		c-17.3,26.8-43.6,52.2-75.4,75.3c-31.2,22.6-67.5,42.8-105.6,59.8c-95.7,42.6-202.2,64.4-264.4,49.8c-12.6-4.3-15-6.2-18.9-11
		c0.8,1.3,1.5,2.6,2.3,4c0.2,0.3,0.3,0.5,0.5,0.8c2.1,3.4,4.4,7,6.7,10.6c3.3,5.1,6.6,10,9.6,14.4c0.3,0.4,0.5,0.8,0.8,1.2
		c1.9,2.5,3.6,4.6,5.1,6.6c1.9,2.3,4,4.8,6.2,7.4c2.4,2.8,4.9,5.6,7.4,8.4c3.2,3.4,7.1,7.3,12.4,12.6c0.5,0.5,1.1,1.1,1.6,1.6
		c0.8,0.8,1.7,1.6,2.7,2.4c2.4,2.2,5.1,4.5,7.8,6.7c2.2,1.8,4.3,3.6,6.4,5.4c1.3,1.1,2.6,2.1,3.8,3.1c0.3,0.2,0.6,0.5,0.9,0.7
		l0.7,0.4c0.5,0.4,1,0.9,1.5,1.3c30.9,15.1,121.1,5.4,212.2-26.6C385.6,580.3,419,565.6,449.6,548.1z"/>
	
		<linearGradient id="SVGID_4_" gradientUnits="userSpaceOnUse" x1="569.7463" y1="247.0181" x2="161.2794" y2="659.6812" gradientTransform="matrix(0.9511 0.309 -0.309 0.9511 138.2876 -83.3702)">
		<stop  offset="6.060610e-03" style="stop-color:#5FC8D7"/>
		<stop  offset="0.1394" style="stop-color:#45C4DB"/>
		<stop  offset="0.6545" style="stop-color:#0E67B2"/>
		<stop  offset="1" style="stop-color:#14244C"/>
	</linearGradient>
	<path class="st4" d="M449,550c26.2-15,50.3-32.1,70.7-51.2c23.1-21.7,41.3-45.9,52.1-72.7c8.1-20.2,12-41.9,10.5-64.9l-0.1-0.5
		c-1-7-2.6-16-4.1-23.5c-0.4-1.7-0.9-3.6-1.4-5.7c-1.3-4.9-2.9-10.9-5.2-19.4c0,0,0,0,0,0c-1.6-4.8-2.8-8.5-4-11.8
		c-1.2-3.3-2.5-6.6-3.8-9.6c-0.6-1.4-1.2-2.8-1.9-4.3c-2.1-4.7-4.9-10.5-8.9-18.9c-0.1-0.2-0.1-0.3-0.2-0.4c-2.4-4.4-4.2-7.8-6-10.9
		c-2.1-3.4-4.2-6.9-6.2-10c-0.2-0.4-0.5-0.7-0.7-1.1c-3-4.4-6.7-9.7-12.3-17.6c-0.3-0.4-0.6-0.9-1-1.3l-0.9-1.2
		c0.5,0.7,1,1.4,1.5,2.1c3,4.2,6.5,9.3,8.8,13.5c9.5,17.3,13.8,34.6,13.7,51.8c-0.2,22.8-8.1,45.3-22,66.9
		c-17.3,26.8-43.6,52.2-75.4,75.3c-31.2,22.6-67.5,42.8-105.6,59.8c-95.7,42.6-202.2,64.4-264.4,49.8c-12.6-4.3-15-6.2-18.9-11
		c0.8,1.3,1.5,2.6,2.3,4c0.2,0.3,0.3,0.5,0.5,0.8c2.1,3.4,4.4,7,6.7,10.6c3.3,5.1,6.6,10,9.6,14.4c0.3,0.4,0.5,0.8,0.8,1.2
		c1.9,2.5,3.6,4.6,5.1,6.6c1.9,2.3,4,4.8,6.2,7.4c2.4,2.8,4.9,5.6,7.4,8.4c3.2,3.4,7.1,7.3,12.4,12.6c0.5,0.5,1.1,1.1,1.6,1.6
		c0.8,0.8,1.7,1.6,2.7,2.4c2.4,2.2,5.1,4.5,7.8,6.7c2.2,1.8,4.3,3.6,6.4,5.4c1.3,1.1,2.6,2.1,3.8,3.1c0.3,0.2,0.6,0.5,0.9,0.7
		l0.7,0.4c0.5,0.4,1,0.9,1.5,1.3c30.9,15.1,121.1,5.4,212.2-26.6C385,582.2,418.3,567.5,449,550z"/>
	
		<linearGradient id="SVGID_5_" gradientUnits="userSpaceOnUse" x1="207.6936" y1="181.4169" x2="48.2439" y2="335.8314" gradientTransform="matrix(0.9511 0.309 -0.309 0.9511 138.2876 -83.3702)">
		<stop  offset="6.060610e-03" style="stop-color:#97D8E2"/>
		<stop  offset="0.1394" style="stop-color:#45C4DB"/>
		<stop  offset="1" style="stop-color:#0E67B2"/>
	</linearGradient>
	<path class="st5" d="M208.7,176.5c-8.4,0.9-23.9,2.4-37.4-0.1c-8.4-1.6-25.8-6.7-6-20.1c-3.3,2.1-7.1,4.6-11,7.1
		c-2.5,1.7-5,3.4-7.3,5c-2.1,1.5-4.1,3-6.1,4.4c-0.7,0.5-1.4,1-2.1,1.5c-5.4,4.2-9.1,7.2-12.9,10.5c-3.6,3.2-7.4,6.7-13,12.1
		c-0.9,0.9-1.8,1.7-2.8,2.7c-2.6,2.7-4.6,4.8-6.4,6.7c-2.1,2.3-4.2,4.6-6.3,7.1c-0.5,0.6-1.1,1.3-1.6,2c-3.1,3.8-7,8.8-13.2,16.9
		c-7.8,13.3,7.3,21.2,44.9,23.4c45.8,2.6,80.8-1.8,96.5-39C228.3,206.5,237.9,174.7,208.7,176.5z"/>
	
		<linearGradient id="SVGID_6_" gradientUnits="userSpaceOnUse" x1="258.0224" y1="98.2781" x2="3.2758" y2="410.3034" gradientTransform="matrix(0.9511 0.309 -0.309 0.9511 138.2876 -83.3702)">
		<stop  offset="6.060610e-03" style="stop-color:#5FC8D7"/>
		<stop  offset="0.1394" style="stop-color:#45C4DB"/>
		<stop  offset="0.6545" style="stop-color:#0E67B2"/>
		<stop  offset="1" style="stop-color:#14244C"/>
	</linearGradient>
	<path class="st6" d="M206.5,176.8c-8.4,0.9-23.9,2.4-37.4-0.1c-8.4-1.6-25.8-6.7-6-20.1c-3.3,2.1-7.1,4.6-11,7.1
		c-2.5,1.7-5,3.4-7.3,5c-2.1,1.5-4.1,3-6.1,4.4c-0.7,0.5-1.4,1-2.1,1.5c-5.4,4.2-9.1,7.2-12.9,10.5c-3.6,3.2-7.4,6.7-13,12.1
		c-0.9,0.9-1.8,1.7-2.8,2.7c-2.6,2.7-4.6,4.8-6.4,6.7c-2.1,2.3-4.2,4.6-6.3,7.1c-0.5,0.6-1.1,1.3-1.6,2c-3.1,3.8-7,8.8-13.2,16.9
		c-7.8,13.3,7.3,21.2,44.9,23.4c45.8,2.6,80.8-1.8,96.5-39C226.1,206.9,235.6,175,206.5,176.8z"/>
	
		<linearGradient id="SVGID_7_" gradientUnits="userSpaceOnUse" x1="392.1965" y1="135.4287" x2="25.6928" y2="493.5395" gradientTransform="matrix(0.9511 0.309 -0.309 0.9511 138.2876 -83.3702)">
		<stop  offset="6.060610e-03" style="stop-color:#97D8E2"/>
		<stop  offset="0.1394" style="stop-color:#45C4DB"/>
		<stop  offset="1" style="stop-color:#0E67B2"/>
	</linearGradient>
	<path class="st7" d="M448,312.5c22.3-23.1,35.7-46.7,39.7-69.4c4.1-22.8-1.4-44.8-16.8-64.3c-13.7-17.3-35.2-32.7-65-45.1
		c-0.3-0.1-0.6-0.2-0.9-0.3c0.2,0.1,0.4,0.1,0.6,0.2c-0.2-0.1-0.4-0.2-0.6-0.2c0,0,0,0,0,0c-3.7-1.3-8-2.8-12.3-4.2
		c-4.5-1.5-9.1-3-13-4.1c0,0,0,0,0,0c-0.3-0.1-0.6-0.2-0.9-0.2c-0.6-0.2-1.1-0.3-1.7-0.5c-1.7-0.4-3.5-0.9-5.4-1.4
		c-3.6-0.9-7-1.6-13.5-2.8c-1.3-0.3-2.6-0.5-3.9-0.8c-0.6-0.1-1.2-0.2-1.9-0.3c-0.1,0-0.1,0-0.2,0c-0.1,0-0.2,0-0.2,0
		c-4.7-0.8-6.9-1.1-11.1-1.6c-0.1,0-0.3,0-0.4-0.1c-3.2-0.4-7.1-0.8-10.1-1.1c-0.1,0-0.1,0-0.2,0c-0.2,0-0.3,0-0.5,0
		c-0.1,0-0.1,0-0.1,0c-1.9-0.2-3.3-0.3-4.6-0.4c-1.2-0.1-2.6-0.2-4.4-0.2c-0.4,0-0.8,0-1.2,0c-0.6,0-1.1-0.1-1.6-0.1
		c-2.3-0.1-5.3-0.2-8.4-0.2c0,0-0.1,0-0.1,0c-2.3,0-4.6,0-6.8,0c-0.7,0-1.4,0-2.3,0.1c-0.3,0-0.5,0-0.8,0c-3.3,0.1-6.1,0.2-8.5,0.3
		c0,0-0.1,0-0.1,0c-0.1,0-0.2,0-0.3,0c-3.6,0.2-5.1,0.3-8.2,0.6c-0.3,0-0.5,0-0.7,0.1c-2.5,0.3-5.7,0.6-8.1,0.8c0,0,0,0,0,0
		c0,0,0,0,0,0c-0.5,0.1-1.1,0.1-1.6,0.2c-1,0.1-1.9,0.3-2.9,0.4c-0.4,0.1-0.7,0.1-1.1,0.2c-21.7,3.2-34.8,9.1-38.3,13.8
		c-1.5,2-1.5,4,0,5.8c4.1,4.8,19.4,7.8,44.3,3.9c0.1-2.5,1.4-4.8,3.6-6.7c14.2-12.6,67.3-12.8,98.6,9.9c3.4,2.4,6.5,5.2,9.3,8.2
		c15.6,16.8,16.6,36,7.1,55.6c-12.2,24.9-41.4,50.4-79.3,72.3c-66.5,38.5-159.3,66.1-232.4,60.4c-43.2-5.2-42.2-17.3-41.8-22.4
		c-1.6,5.9-3,11.5-4.2,16.9c-0.2,0.8-0.4,1.7-0.5,2.5c0,0.2-0.1,0.3-0.1,0.5c-0.3,1.2-0.5,2.5-0.8,3.7c-2.2,11.1-3.9,25.6-4.5,37.8
		c-0.2,3.5-0.2,6.9-0.2,10.3c0,0.3,0,0.6,0,1c0,4.8,0.1,9.4,0.3,13.8c0.4,9.1,1.2,17.5,1.9,25.7l0.6,4.2
		c3.5,10.5,17.2,13.5,31.8,16.8c0-1.3-0.1-2.6-0.1-3.8c0,1.2,0.1,2.5,0.1,3.8c74.5,11.2,178.1-23.8,244.3-51c7.3-3,14.3-6,21.1-9.1
		C380.6,367.9,420.9,340.7,448,312.5z"/>
	
		<linearGradient id="SVGID_8_" gradientUnits="userSpaceOnUse" x1="392.1965" y1="137.4287" x2="25.6928" y2="495.5395" gradientTransform="matrix(0.9511 0.309 -0.309 0.9511 138.2876 -83.3702)">
		<stop  offset="6.060610e-03" style="stop-color:#5FC8D7"/>
		<stop  offset="0.1394" style="stop-color:#45C4DB"/>
		<stop  offset="0.6545" style="stop-color:#0E67B2"/>
		<stop  offset="1" style="stop-color:#14244C"/>
	</linearGradient>
	<path class="st8" d="M447.4,314.5c22.3-23.1,35.7-46.7,39.7-69.4c4.1-22.8-1.4-44.8-16.8-64.3c-13.7-17.3-35.2-32.7-65-45.1
		c-0.3-0.1-0.6-0.2-0.9-0.3c0.2,0.1,0.4,0.1,0.6,0.2c-0.2-0.1-0.4-0.2-0.6-0.2c0,0,0,0,0,0c-3.7-1.3-8-2.8-12.3-4.2
		c-4.5-1.5-9.1-3-13-4.1c0,0,0,0,0,0c-0.3-0.1-0.6-0.2-0.9-0.2c-0.6-0.2-1.1-0.3-1.7-0.5c-1.7-0.4-3.5-0.9-5.4-1.4
		c-3.6-0.9-7-1.6-13.5-2.8c-1.3-0.3-2.6-0.5-3.9-0.8c-0.6-0.1-1.2-0.2-1.9-0.3c-0.1,0-0.1,0-0.2,0c-0.1,0-0.2,0-0.2,0
		c-4.7-0.8-6.9-1.1-11.1-1.6c-0.1,0-0.3,0-0.4-0.1c-3.2-0.4-7.1-0.8-10.1-1.1c-0.1,0-0.1,0-0.2,0c-0.2,0-0.3,0-0.5,0
		c-0.1,0-0.1,0-0.1,0c-1.9-0.2-3.3-0.3-4.6-0.4c-1.2-0.1-2.6-0.2-4.4-0.2c-0.4,0-0.8,0-1.2,0c-0.6,0-1.1-0.1-1.6-0.1
		c-2.3-0.1-5.3-0.2-8.4-0.2c0,0-0.1,0-0.1,0c-2.3,0-4.6,0-6.8,0c-0.7,0-1.4,0-2.3,0.1c-0.3,0-0.5,0-0.8,0c-3.3,0.1-6.1,0.2-8.5,0.3
		c0,0-0.1,0-0.1,0c-0.1,0-0.2,0-0.3,0c-3.6,0.2-5.1,0.3-8.2,0.6c-0.3,0-0.5,0-0.7,0.1c-2.5,0.3-5.7,0.6-8.1,0.8c0,0,0,0,0,0
		c0,0,0,0,0,0c-0.5,0.1-1.1,0.1-1.6,0.2c-1,0.1-1.9,0.3-2.9,0.4c-0.4,0.1-0.7,0.1-1.1,0.2c-21.7,3.2-34.8,9.1-38.3,13.8
		c-1.5,2-1.5,4,0,5.8c4.1,4.8,19.4,7.8,44.3,3.9c0.1-2.5,1.4-4.8,3.6-6.7c14.2-12.6,67.3-12.8,98.6,9.9c3.4,2.4,6.5,5.2,9.3,8.2
		c15.6,16.8,16.6,36,7.1,55.6c-12.2,24.9-41.4,50.4-79.3,72.3c-66.5,38.5-159.3,66.1-232.4,60.4c-43.2-5.2-42.2-17.3-41.8-22.4
		c-1.6,5.9-3,11.5-4.2,16.9c-0.2,0.8-0.4,1.7-0.5,2.5c0,0.2-0.1,0.3-0.1,0.5c-0.3,1.2-0.5,2.5-0.8,3.7c-2.2,11.1-3.9,25.6-4.5,37.8
		c-0.2,3.5-0.2,6.9-0.2,10.3c0,0.3,0,0.6,0,1c0,4.8,0.1,9.4,0.3,13.8c0.4,9.1,1.2,17.5,1.9,25.7l0.6,4.2
		c3.5,10.5,17.2,13.5,31.8,16.8c0-1.3-0.1-2.6-0.1-3.8c0,1.2,0.1,2.5,0.1,3.8c74.5,11.2,178.1-23.8,244.3-51c7.3-3,14.3-6,21.1-9.1
		C380,369.8,420.2,342.6,447.4,314.5z"/>
</g>
</svg>
